<svg xmlns="http://www.w3.org/2000/svg" fill="none" viewBox="-0.7 -0.7 14 14" id="Shirt--Streamline-Flex.svg" height="14" width="14" style="background-color: #ffffff"><desc>Shirt Streamline Icon: https://streamlinehq.com</desc><g id="shirt--clothing-t-shirt-men-top-shopping-catergories"><path id="Union" fill="#ffc0cb" fill-rule="evenodd" d="M3.2256 0.5499A0.5553 0.5553 0 0 0 2.988 0.6120000000000001a1.269 1.269 0 0 0 -0.2034 0.12600000000000003c-0.1305 0.0981 -0.26639999999999997 0.225 -0.3933 0.3537 -0.12689999999999999 0.1296 -0.25020000000000003 0.2646 -0.3528 0.3789l-0.0549 0.061200000000000004a5.9886 5.9886 0 0 1 -0.17820000000000003 0.1944 20.763 20.763 0 0 0 -0.8946000000000001 0.9692999999999999c-0.3456 0.3942 -0.3978 0.9963 -0.081 1.431 0.0972 0.135 0.2061 0.27 0.3312 0.396 0.12600000000000003 0.12600000000000003 0.261 0.234 0.396 0.3321 0.3996 0.2898 0.9396000000000001 0.27 1.3302 -0.0027 -0.0207 1.9332000000000003 -0.0216 4.1715 0.0477 5.795100000000001 0.018000000000000002 0.4293 0.2862 0.8181 0.7038000000000001 0.9621 1.809 0.6255 3.5127 0.5535 5.2866 -0.007200000000000001a1.071 1.071 0 0 0 0.7415999999999999 -0.9819c0.0675 -1.62 0.06659999999999999 -3.8448 0.045899999999999996 -5.767200000000001a1.1529 1.1529 0 0 0 1.3302 0.0018000000000000002c0.135 -0.0972 0.27 -0.2061 0.396 -0.3312 0.12600000000000003 -0.12600000000000003 0.234 -0.26189999999999997 0.3321 -0.396 0.3159 -0.4356 0.2637 -1.0377 -0.0819 -1.431 -0.279 -0.3186 -0.5733 -0.6498 -0.8937 -0.9702000000000001a4.5297 4.5297 0 0 1 -0.1773 -0.1935l-0.054 -0.060300000000000006a11.079 11.079 0 0 0 -0.3528 -0.37979999999999997 3.6162 3.6162 0 0 0 -0.3942 -0.3537 1.2681 1.2681 0 0 0 -0.2034 -0.12600000000000003 0.558 0.558 0 0 0 -0.23940000000000003 -0.06210000000000001H7.8525A0.225 0.225 0 0 0 7.632000000000001 0.7290000000000001a1.4634 1.4634 0 0 1 -2.8611 0 0.225 0.225 0 0 0 -0.2196 -0.17820000000000003H3.2256Z" clip-rule="evenodd" stroke-width="1"></path></g></svg>